<svg xmlns="http://www.w3.org/2000/svg" viewBox="0 0 39.912 25.537">
  <defs>
    <style>
      .cls-1 {
        fill: #f34a38;
      }
    </style>
  </defs>
  <g id="google-plus_2_" data-name="google-plus (2)" transform="translate(0 -82.519)">
    <path id="Path_594" data-name="Path 594" class="cls-1" d="M14,97.922h6.236a7.927,7.927,0,1,1-2.152-8.5.859.859,0,0,0,1.168,0l2.29-2.156a.856.856,0,0,0,0-1.245,12.721,12.721,0,0,0-8.525-3.5A12.769,12.769,0,1,0,25.516,96.006c.01-.084.016-2.931.016-2.931H14a.856.856,0,0,0-.856.856v3.135A.856.856,0,0,0,14,97.922Z" transform="translate(0)"/>
    <path id="Path_595" data-name="Path 595" class="cls-1" d="M331.751,167.021v-3.063a.75.75,0,0,0-.75-.75h-2.578a.75.75,0,0,0-.75.75v3.063H324.61a.75.75,0,0,0-.75.75v2.578a.75.75,0,0,0,.75.75h3.063v3.063a.75.75,0,0,0,.75.75H331a.75.75,0,0,0,.75-.75V171.1h3.063a.75.75,0,0,0,.75-.75v-2.578a.75.75,0,0,0-.75-.75Z" transform="translate(-295.653 -73.661)"/>
  </g>
</svg>
