<svg xmlns="http://www.w3.org/2000/svg" viewBox="0 0 31.438 25.544">
  <defs>
    <style>
      .cls-1 {
        fill: #03a9f4;
      }
    </style>
  </defs>
  <path id="twitter_1_" data-name="twitter (1)" class="cls-1" d="M31.439,51.024a13.438,13.438,0,0,1-3.714,1.018,6.409,6.409,0,0,0,2.835-3.562,12.88,12.88,0,0,1-4.087,1.56,6.445,6.445,0,0,0-11.149,4.407,6.636,6.636,0,0,0,.149,1.47A18.243,18.243,0,0,1,2.189,49.175,6.447,6.447,0,0,0,4.17,57.789,6.365,6.365,0,0,1,1.258,57v.071A6.475,6.475,0,0,0,6.421,63.4a6.433,6.433,0,0,1-1.69.212,5.7,5.7,0,0,1-1.22-.11,6.507,6.507,0,0,0,6.022,4.49A12.95,12.95,0,0,1,1.542,70.74,12.072,12.072,0,0,1,0,70.651a18.145,18.145,0,0,0,9.887,2.892c11.86,0,18.344-9.825,18.344-18.34,0-.285-.01-.56-.024-.833A12.858,12.858,0,0,0,31.439,51.024Z" transform="translate(0 -48)"/>
</svg>
